<svg width="512" height="512" viewBox="0 0 512 512" fill="none" xmlns="http://www.w3.org/2000/svg">
<path d="M286.002 46.143C399.142 46.143 490.859 137.861 490.859 251C490.859 364.139 399.141 455.858 286.002 455.858L234.766 455.858L234.766 46.143L286.002 46.143Z" fill="#E48863"/>
<path d="M234.766 46.1429C121.627 46.1429 29.909 137.86 29.909 251C29.909 364.139 121.627 455.857 234.766 455.857C347.905 455.857 439.623 364.139 439.623 251C439.623 137.861 347.905 46.1429 234.766 46.1429Z" fill="#F5DE58"/>
<path d="M220.754 46.62C225.384 46.3 230.054 46.14 234.764 46.14C347.904 46.14 439.624 137.86 439.624 251C439.624 364.14 347.904 455.86 234.764 455.86C230.054 455.86 225.384 455.7 220.754 455.38C327.354 448.18 411.594 359.43 411.594 251C411.594 142.57 327.354 53.82 220.754 46.62Z" fill="#EEBD56"/>
<path d="M234.766 105.138C154.209 105.138 88.904 170.443 88.904 251C88.904 331.557 154.209 396.862 234.766 396.862C315.323 396.862 380.628 331.557 380.628 251C380.628 170.443 315.323 105.138 234.766 105.138Z" fill="#EEBD56"/>
<path d="M88.904 251C88.904 170.574 154.333 105.136 234.759 105.136C242.156 105.136 249.429 105.693 256.533 106.755C186.397 117.302 132.443 177.971 132.443 251C132.443 324.029 186.397 384.698 256.533 395.245C249.325 396.323 242.047 396.864 234.759 396.864C154.334 396.864 88.904 331.426 88.904 251Z" fill="#E48863"/>
<path d="M157.66 254.835C142.584 269.53 150.903 295.133 171.737 298.161L193.245 301.286C197.32 301.878 201.191 303.452 204.522 305.873C207.854 308.294 210.547 311.488 212.37 315.181L218.775 328.158L213.689 328.158L213.689 348.795L243.682 348.795C253.096 349.187 262.7 344.488 267.545 334.671L277.164 315.181C278.987 311.488 281.68 308.294 285.011 305.873C288.343 303.452 292.214 301.878 296.289 301.286L317.797 298.161C338.631 295.134 346.95 269.531 331.874 254.835L316.311 239.664C313.362 236.79 311.156 233.241 309.883 229.324C308.61 225.407 308.309 221.24 309.006 217.181L312.68 195.76C315.473 179.477 302.662 166.234 288.012 166.018L288.014 166.009L258.168 166.009L258.168 178.266L256.587 179.097C249.187 182.987 240.347 182.987 232.947 179.097L213.709 168.983C210.174 167.125 206.526 166.192 202.959 166.036L202.965 166.008L173.12 166.008L173.12 179.096L179.67 179.096C176.992 183.853 175.795 189.584 176.854 195.759L180.528 217.18C181.224 221.239 180.923 225.406 179.65 229.323C178.378 233.24 176.172 236.788 173.223 239.663L157.66 254.835Z" fill="#E48863"/>
<path d="M191.987 334.671L182.368 315.181C180.545 311.488 177.852 308.294 174.52 305.873C171.189 303.452 167.318 301.878 163.243 301.286L141.735 298.161C120.901 295.134 112.582 269.531 127.658 254.835L143.222 239.664C146.171 236.789 148.377 233.241 149.65 229.324C150.922 225.407 151.223 221.24 150.527 217.181L146.853 195.76C143.294 175.01 165.073 159.186 183.708 168.983L202.946 179.097C206.591 181.013 210.648 182.014 214.766 182.014C218.884 182.014 222.941 181.013 226.586 179.097L245.824 168.983C264.459 159.186 286.238 175.01 282.679 195.76L279.005 217.181C278.309 221.24 278.61 225.407 279.883 229.324C281.155 233.241 283.361 236.789 286.31 239.664L301.874 254.835C316.95 269.53 308.631 295.133 287.797 298.161L266.289 301.286C262.214 301.878 258.343 303.452 255.011 305.873C251.68 308.294 248.987 311.488 247.164 315.181L237.545 334.671C228.225 353.55 201.304 353.55 191.987 334.671Z" fill="#F5DE58"/>
</svg>
